# xmcd CD database file
#
# Track frame offsets:
#	150
#	19578
#	41438
#	59095
#	80133
#	100651
#	122758
#	144228
#	162550
#	184468
#	207228
#	230775
#	251120
#
# Disc length: 3581 seconds
#
# Revision: 2
# Processed by: cddbd v1.5.2PL0 Copyright (c) Steve Scherf et al.
# Submitted via: CDex 1.70beta2
#
DISCID=be0dfb0d
DTITLE=ポルノグラフィティ - PORNO GRAFFITTI BEST BLUE'S
DYEAR=2004
DGENRE=JPop
TTITLE0=アポロ
TTITLE1=サボテン
TTITLE2=オレ、天使
TTITLE3=アゲハ蝶
TTITLE4=ラビュー・ラビュー
TTITLE5=音のない森
TTITLE6=渦
TTITLE7=ヒトリノ夜
TTITLE8=ハート
TTITLE9=パレット
TTITLE10=カルマの坂
TTITLE11=メリッサ
TTITLE12=まほろば○△
EXTD=YEAR: 2004
EXTT0=
EXTT1=
EXTT2=
EXTT3=
EXTT4=
EXTT5=
EXTT6=
EXTT7=
EXTT8=
EXTT9=
EXTT10=
EXTT11=
EXTT12=
PLAYORDER=
